<svg xmlns:dc="http://purl.org/dc/elements/1.1/" xmlns:cc="http://creativecommons.org/ns#" xmlns:rdf="http://www.w3.org/1999/02/22-rdf-syntax-ns#" xmlns:svg="http://www.w3.org/2000/svg" xmlns="http://www.w3.org/2000/svg" version="1.1" viewBox="0 0 300 375" xml:space="preserve" style="" x="0px" y="0px" fill-rule="evenodd">
  <g transform="matrix(5,0,0,5,-2905,-10432.031)" style="" fill="#000000" fill-opacity="1" stroke="none" display="inline">
    <path d="m 612.6875,2090.4843 c -5.04783,0 -9.7658,1.2925 -14.1875,3.875 -4.42174,2.5827 -7.94078,6.0862 -10.5625,10.4688 -2.62173,4.3435 -3.93751,8.9759 -3.9375,13.9062 -10e-6,6.6913 2.45246,12.2813 7.34375,16.7813 4.93041,4.5391 11.40789,6.8125 19.46875,6.8125 5.32168,0 9.95722,-0.9819 13.9375,-2.7188 1.23228,-0.5377 1.8801,-1.8979 1.40625,-3.1562 -0.47385,-1.2582 -1.86675,-1.8801 -3.125,-1.4062 -3.5609,1.6043 -7.5938,2.4062 -12.09375,2.4062 -3.52175,0 -6.86172,-0.7785 -10.03125,-2.3438 -3.16957,-1.5259 -5.80111,-3.7527 -7.875,-6.6874 -2.03478,-2.9348 -3.03126,-6.2126 -3.03125,-9.8126 -10e-6,-3.7563 0.98098,-7.3844 2.9375,-10.9062 1.99563,-3.5217 4.70489,-6.4179 8.1875,-8.6875 3.52171,-2.2695 7.28994,-3.4063 11.28125,-3.4063 5.2043,0 9.83666,1.6895 13.90625,5.0938 4.0695,3.4043 6.12495,7.3516 6.125,11.8125 -5e-5,3.6 -1.02777,6.7142 -3.0625,9.375 -1.99569,2.6609 -4.02776,4 -6.0625,4 -1.87829,0 -2.81253,-0.9108 -2.8125,-2.75 -3e-5,-0.5478 0.1323,-1.3342 0.40625,-2.3125 l 3.8125,-13.6875 c 0.40392,-1.5055 -0.47812,-2.75 -1.96875,-2.75 -1.49063,0 -3.03358,1.2445 -3.4375,2.75 l -0.21875,0.9063 c -0.70438,-1.4872 -1.54514,-2.5536 -2.5625,-3.2188 -1.01742,-0.6652 -2.33319,-0.9999 -3.9375,-1 -2.73915,10e-5 -5.16824,0.6851 -7.28125,2.0938 -2.11306,1.4085 -4.50971,3.8779 -5.68782,6.2503 -1.56601,3.1535 -2.03709,5.2786 -2.06218,8.7184 -10e-6,2.7783 0.93423,5.1685 2.8125,7.125 1.87824,1.9565 4.15162,2.9063 6.8125,2.9063 3.48257,0 6.42552,-1.4248 8.8125,-4.2813 0.43039,1.2521 1.2478,2.3033 2.5,3.125 1.25213,0.7826 2.85595,1.1563 4.8125,1.1563 1.56517,-2e-4 3.19235,-0.397 4.875,-1.2188 1.72168,-0.8217 3.30213,-1.9585 4.75,-3.4062 1.48689,-1.4481 2.71707,-3.2928 3.65625,-5.5626 0.93907,-2.2693 1.4062,-4.722 1.40625,-7.3437 -5e-5,-6.926 -2.35904,-12.4772 -7.09375,-16.625 -4.69568,-4.1869 -10.78403,-6.2813 -18.21875,-6.2813 z m -0.28125,17.6876 c 1.52605,0 2.70948,0.5138 3.53125,1.5312 0.8217,1.0174 1.21872,2.4422 1.21875,4.2812 -3e-5,2.6218 -0.84081,5.2689 -2.5625,7.9688 -1.72177,2.7 -3.77721,4.0625 -6.125,4.0625 -1.44784,0 -2.60002,-0.584 -3.5,-1.7187 -0.86088,-1.1349 -1.31253,-2.6063 -1.3125,-4.4063 -3e-5,-3.013 0.89536,-5.7067 2.65625,-8.0937 1.79997,-2.426 3.82417,-3.625 6.09375,-3.625 z" style="" fill="#000000" stroke="none"/>
  </g>
</svg>
