<svg version="1.1" id="Layer_1" xmlns="http://www.w3.org/2000/svg" xmlns:xlink="http://www.w3.org/1999/xlink" x="0px" y="0px" viewBox="0 0 2476 2476" style="enable-background:new 0 0 2476 2476;" xml:space="preserve"><path d="M825.4,1238c0-227.9,184.7-412.7,412.6-412.7c227.9,0,412.7,184.8,412.7,412.7c0,227.9-184.8,412.7-412.7,412.7	C1010.1,1650.7,825.4,1465.9,825.4,1238 M602.3,1238c0,351.1,284.6,635.7,635.7,635.7c351.1,0,635.7-284.6,635.7-635.7	S1589.1,602.3,1238,602.3C886.9,602.3,602.3,886.9,602.3,1238 M1750.3,577.1c0,82,66.5,148.6,148.6,148.6	c82,0,148.6-66.6,148.6-148.6c0-82-66.5-148.5-148.6-148.5C1816.8,428.6,1750.3,495.1,1750.3,577.1 M737.8,2245.7	c-120.7-5.5-186.3-25.6-229.9-42.6c-57.8-22.5-99-49.3-142.4-92.6c-43.3-43.3-70.2-84.5-92.6-142.3c-17-43.6-37.1-109.2-42.6-229.9	c-6-130.5-7.2-169.7-7.2-500.3c0-330.6,1.3-369.7,7.2-500.3c5.5-120.7,25.7-186.2,42.6-229.9c22.5-57.8,49.3-99,92.6-142.4	c43.3-43.3,84.5-70.2,142.4-92.6c43.6-17,109.2-37.1,229.9-42.6c130.5-6,169.7-7.2,500.2-7.2c330.6,0,369.7,1.3,500.3,7.2	c120.7,5.5,186.2,25.7,229.9,42.6c57.8,22.4,99,49.3,142.4,92.6c43.3,43.3,70.1,84.6,92.6,142.4c17,43.6,37.1,109.2,42.6,229.9	c6,130.6,7.2,169.7,7.2,500.3c0,330.5-1.2,369.7-7.2,500.3c-5.5,120.7-25.7,186.3-42.6,229.9c-22.5,57.8-49.3,99-92.6,142.3	c-43.3,43.3-84.6,70.1-142.4,92.6c-43.6,17-109.2,37.1-229.9,42.6c-130.5,6-169.7,7.2-500.3,7.2	C907.5,2252.9,868.3,2251.7,737.8,2245.7 M727.6,7.5c-131.8,6-221.8,26.9-300.5,57.5c-81.4,31.6-150.4,74-219.3,142.8	C139,276.6,96.6,345.6,65,427.1C34.4,505.8,13.5,595.8,7.5,727.6C1.4,859.6,0,901.8,0,1238s1.4,378.4,7.5,510.4	c6,131.8,26.9,221.8,57.5,300.5c31.6,81.4,73.9,150.5,142.8,219.3c68.8,68.8,137.8,111.1,219.3,142.8	c78.8,30.6,168.7,51.5,300.5,57.5c132.1,6,174.2,7.5,510.4,7.5c336.3,0,378.4-1.4,510.4-7.5c131.8-6,221.8-26.9,300.5-57.5	c81.4-31.7,150.4-74,219.3-142.8c68.8-68.8,111.1-137.9,142.8-219.3c30.6-78.7,51.6-168.7,57.5-300.5c6-132.1,7.4-174.2,7.4-510.4	s-1.4-378.4-7.4-510.4c-6-131.8-26.9-221.8-57.5-300.5c-31.7-81.4-74-150.4-142.8-219.3C2199.4,139,2130.3,96.6,2049,65	c-78.8-30.6-168.8-51.6-300.5-57.5c-132-6-174.2-7.5-510.4-7.5C901.8,0,859.7,1.4,727.6,7.5"/>
</svg>
