<svg version="1.1" id="Layer_1" xmlns="http://www.w3.org/2000/svg" xmlns:xlink="http://www.w3.org/1999/xlink" x="0px" y="0px"
   viewBox="0 0 97.6 93.2" style="enable-background:new 0 0 97.6 93.2;" xml:space="preserve">
  <g>
    <rect x="1.2" y="30.3" width="20.9" height="62.9"/>
    <path d="M11.8,0C4.7,0,0,4.7,0,10.9c0,6,4.5,10.9,11.6,10.9h0.1c7.3,0,11.8-4.8,11.8-10.9C23.4,4.7,19,0,11.8,0z"/>
    <path d="M73.5,28.9c-11.1,0-16.1,6.1-18.9,10.4v0.2h-0.1c0-0.1,0.1-0.1,0.1-0.2v-8.9H33.7c0.3,5.9,0,62.9,0,62.9h20.9
      V58.1c0-1.9,0.1-3.8,0.7-5.1c1.5-3.8,5-7.7,10.7-7.7c7.6,0,10.6,5.8,10.6,14.2v33.7h20.9V57.2C97.6,37.8,87.3,28.9,73.5,28.9z"/>
  </g>
</svg>
